<svg width="271" height="72" fill="none" xmlns="http://www.w3.org/2000/svg"><path d="M1.3 69h4v-4.3h2.2c3.3 0 5.5-2 5.5-5.1 0-3.1-2.2-5.1-5.4-5.1H1.3V69Zm4-7.4v-4h1.4c1.3 0 2.2.7 2.2 2 0 1.2-.9 2-2.2 2H5.3Zm9.1 7.4h4v-4.8h1.4l2.5 4.8h4.3l-3-5.4c1.6-.8 2.5-2.2 2.5-4.2 0-3.1-2.1-5-5.4-5h-6.3V69Zm4-7.9v-3.5h1.4c1.4 0 2.2.5 2.2 1.8 0 1.2-.8 1.7-2.2 1.7h-1.4ZM31.6 69l.8-2.8h4.8l.9 2.8h4.2l-4.8-14.5h-5.4L27.3 69h4.3Zm1.7-5.7 1.5-4.8 1.5 4.8h-3Zm23.3-3.4c-.3-3.6-3-5.6-6.6-5.6-4 0-7 2.6-7 7.4 0 4.9 3 7.5 7 7.5 4.3 0 6.4-3 6.6-5.4h-4c-.2 1.2-1 2-2.5 2-2 0-3-1.4-3-4s1-4.1 3-4.1c1.5 0 2.4.9 2.5 2.2h4Zm1.4-2.3h4.4V69h3.9V57.6h4.4v-3.1H58v3.1Zm18-3.1h-3.9V69h4V54.5Zm15.5 5.4c-.3-3.6-3-5.6-6.6-5.6-3.9 0-7 2.6-7 7.4 0 4.9 3 7.5 7 7.5 4.3 0 6.4-3 6.6-5.4h-4c-.2 1.2-1 2-2.5 2-2 0-3-1.4-3-4s1-4.1 3-4.1c1.6 0 2.4.9 2.5 2.2h4Zm10.4-5.4v9c0 1.3-1 2.3-2.3 2.3-1.3 0-2.3-1-2.3-2.4v-9h-4v9.4c0 3.3 2.5 5.4 6.3 5.4 3.7 0 6.3-2.1 6.3-5.4v-9.3h-4Zm5.9 0V69h3.8v-8.5h.1L115 69h2.3l3.3-8.3V69h4V54.5h-5l-3.4 8.2h-.1l-3.4-8.2h-5ZM134.2 69l.8-2.8h4.8l.8 2.8h4.3l-4.8-14.5h-5.4L129.9 69h4.3Zm1.7-5.7 1.4-4.8h.2l1.4 4.8h-3Zm10.4 5.7h4v-4.8h1.3l2.6 4.8h4.3l-3-5.4c1.6-.8 2.5-2.2 2.5-4.2 0-3.1-2.2-5-5.4-5h-6.3V69Zm4-7.9v-3.5h1.3c1.4 0 2.3.5 2.3 1.8 0 1.2-.9 1.7-2.3 1.7h-1.3Zm9-3.5h4.3V69h4V57.6h4.3v-3.1h-12.6v3.1Zm27.5 1.7h4c-.3-3-3-5-6.4-5-3.9 0-7 2.7-7 7.5 0 4.6 2.8 7.4 7 7.4 3.9 0 6.6-2.3 6.6-6.3v-2h-6.5v2.8h2.7c0 1.3-1 2-2.7 2-2 0-3.1-1.4-3.1-4 0-2.5 1.1-4 3.1-4 1.2 0 2 .6 2.3 1.6Zm9.4 9.7.8-2.8h4.8l.8 2.8h4.3L202 54.5h-5.4L191.9 69h4.3Zm1.7-5.7 1.4-4.8h.1l1.5 4.8h-3Zm10.4 5.7h9.8v-3.2h-5.9V54.5h-4V69Zm11.4 0h9.8v-3.2h-5.8V54.5h-4V69Zm11.4 0h10.5v-3.2h-6.5v-2.5h6v-3.2h-6v-2.5h6.5v-3.1h-10.5V69Zm12.5 0h4v-4.8h1.3l2.6 4.8h4.2l-3-5.4c1.6-.8 2.6-2.2 2.6-4.2 0-3.1-2.2-5-5.4-5h-6.3V69Zm4-7.9v-3.5h1.3c1.4 0 2.2.5 2.2 1.8 0 1.2-.8 1.7-2.2 1.7h-1.4Zm8-6.6 5.4 10V69h4v-4.6l5.3-10h-4.4l-2.9 6-3-6h-4.3Z" fill="#fff"/><rect x="119" width="32" height="32" rx="2" fill="#0278FE"/><path fill="#2A2C2F" d="M119 6h32v2h-32z"/><path fill="#2A2C2F" d="M130 6h2v26h-2z"/></svg>
